<svg viewBox="0 0 1058 214" fill="none" xmlns="http://www.w3.org/2000/svg">
<path d="M368.866 162L319.935 102.047L367.196 45.1H344.317L299.895 97.538V45.1H280.69V162H299.895V106.389L345.987 162H368.866ZM436.942 78.5V90.357C430.596 81.673 420.743 76.329 407.717 76.329C385.005 76.329 366.134 95.367 366.134 120.25C366.134 144.966 385.005 164.171 407.717 164.171C420.743 164.171 430.596 158.827 436.942 149.976V162H454.978V78.5H436.942ZM410.556 146.97C395.526 146.97 384.17 135.781 384.17 120.25C384.17 104.719 395.526 93.53 410.556 93.53C425.586 93.53 436.942 104.719 436.942 120.25C436.942 135.781 425.586 146.97 410.556 146.97ZM492.366 92.528V78.5H474.33V162H492.366V119.916C492.366 101.212 506.227 95.701 518.084 96.536V76.997C507.563 76.997 497.376 81.172 492.366 92.528ZM540.021 127.932H606.487C606.821 125.594 607.155 122.922 607.155 120.417C607.155 96.369 590.121 76.329 565.238 76.329C539.019 76.329 521.15 95.534 521.15 120.25C521.15 145.3 539.019 164.171 566.574 164.171C582.94 164.171 595.465 157.324 603.147 145.968L588.284 137.284C584.276 143.129 576.761 147.638 566.741 147.638C553.381 147.638 542.86 140.958 540.021 127.932ZM539.854 113.236C542.359 100.711 551.544 92.695 565.071 92.695C575.926 92.695 586.447 98.874 588.952 113.236H539.854ZM729.238 162H750.28L723.727 116.576C737.421 111.065 746.94 97.705 746.94 82.675C746.94 61.8 730.24 45.1 709.365 45.1H662.605V162H681.81V119.415H704.522L729.238 162ZM681.81 63.136H709.365C719.552 63.136 727.735 71.653 727.735 82.675C727.735 93.53 719.552 102.214 709.365 102.214H681.81V63.136ZM823.912 78.5V90.357C817.566 81.673 807.713 76.329 794.687 76.329C771.975 76.329 753.104 95.367 753.104 120.25C753.104 144.966 771.975 164.171 794.687 164.171C807.713 164.171 817.566 158.827 823.912 149.976V162H841.948V78.5H823.912ZM797.526 146.97C782.496 146.97 771.14 135.781 771.14 120.25C771.14 104.719 782.496 93.53 797.526 93.53C812.556 93.53 823.912 104.719 823.912 120.25C823.912 135.781 812.556 146.97 797.526 146.97ZM870.319 65.975C876.665 65.975 881.842 60.631 881.842 54.452C881.842 48.106 876.665 42.929 870.319 42.929C863.973 42.929 858.796 48.106 858.796 54.452C858.796 60.631 863.973 65.975 870.319 65.975ZM861.301 162H879.337V78.5H861.301V162ZM914.318 101.546C914.318 95.534 919.996 92.695 926.509 92.695C933.356 92.695 939.201 95.701 942.207 102.214L957.404 93.697C951.559 82.675 940.203 76.329 926.509 76.329C909.475 76.329 895.948 86.182 895.948 101.88C895.948 131.773 940.871 123.423 940.871 138.286C940.871 144.966 934.692 147.638 926.676 147.638C917.491 147.638 910.811 143.129 908.139 135.614L892.608 144.632C897.952 156.656 909.976 164.171 926.676 164.171C944.712 164.171 959.241 155.153 959.241 138.453C959.241 107.558 914.318 116.743 914.318 101.546ZM1028.73 78.5V123.256C1028.73 140.29 1019.37 147.304 1007.52 147.304C996.161 147.304 988.813 140.624 988.813 127.932V78.5H970.777V129.769C970.777 151.479 984.137 164.171 1002.84 164.171C1014.2 164.171 1023.22 159.996 1028.73 151.312V162H1046.76V78.5H1028.73Z" fill="#2A2A2A"/>
<path d="M94.7824 1.265C68.6878 4.10828 44.098 17.0572 26.9638 36.9944C23.6122 40.8997 18.5848 47.6482 17.08 50.2174C15.9172 52.2043 16.6696 51.3136 18.961 47.9907C24.1936 40.3858 33.2566 30.6227 40.2334 25.1075C56.6494 12.1585 76.0066 4.34808 96.5266 2.39546C102.751 1.81311 114.721 2.15567 120.843 3.11485C134.42 5.17023 147.416 10.0004 159.01 17.2627C162.943 19.7292 168.005 23.3604 167.799 23.5659C167.526 23.8057 165.098 22.5382 162.498 20.8254C159.113 18.5645 152.375 14.9333 148.066 13.0149C143.723 11.0966 134.078 7.87649 129.017 6.67751C101.451 0.168798 71.8684 5.54705 48.0652 21.4078C41.7382 25.6213 38.455 28.3276 32.6752 33.9456C25.5274 40.9339 19.7476 48.4361 14.344 57.6853C13.1812 59.7064 12.1552 61.3165 12.0868 61.248C12.0184 61.1795 12.0868 60.6313 12.2578 60.049C12.4288 59.4324 12.5314 58.9528 12.463 58.9528C12.2236 58.9528 8.94038 66.0439 7.50398 69.5723C5.72558 74.0256 3.94718 79.8149 2.92118 84.4053C1.99778 88.5161 0.629778 97.2857 0.698178 98.6902C0.732378 99.1698 0.971778 98.1421 1.21118 96.4635C1.82678 92.4213 2.40818 89.6808 2.57918 89.8863C2.64758 89.9548 2.47658 91.6334 2.20298 93.586C1.45058 98.8272 1.17698 108.042 1.65578 113.249C2.40818 121.608 3.29738 125.719 5.52038 131.405C6.64898 134.214 8.11958 138.085 8.76938 139.969C15.199 158.433 25.1512 173.849 37.3948 184.263C42.046 188.202 42.1828 188.236 38.5918 184.503C34.6588 180.357 25.459 168.916 26.1088 168.916C26.2114 168.916 28.1266 171.04 30.3496 173.609C38.7628 183.338 44.5768 188.065 53.9476 192.827C56.1364 193.957 59.4196 195.43 61.198 196.15C62.9764 196.869 64.618 197.588 64.8574 197.76C65.0968 197.931 66.2254 198.616 67.4224 199.301C68.9272 200.123 69.2692 200.397 68.551 200.26C66.7384 199.884 56.3758 195.602 52.5796 193.717C50.5276 192.69 48.886 191.936 48.886 192.005C48.886 192.073 50.6986 193.238 52.9216 194.574C68.893 204.131 87.0874 209.167 106.513 209.441C109.728 209.475 115.405 209.407 119.167 209.27C125.323 209.064 126.281 208.927 128.572 208.139C129.974 207.626 132.3 206.94 133.702 206.564C135.104 206.187 136.541 205.81 136.883 205.707C137.225 205.604 137.464 205.639 137.43 205.81C137.259 206.872 137.567 206.906 139.242 206.05C140.405 205.467 140.85 205.091 140.542 204.885C140.268 204.714 140.987 204.337 142.457 203.857C143.757 203.446 145.056 202.898 145.33 202.658C146.322 201.87 151.144 199.438 151.144 199.747C151.144 199.884 150.939 200.123 150.734 200.192C150.494 200.295 150.631 200.397 151.041 200.397C151.452 200.432 151.828 200.603 151.896 200.774C151.965 200.98 153.299 200.363 154.906 199.37C156.513 198.411 158.052 197.52 158.326 197.417C159.147 197.143 164.995 192.998 167.218 191.148C168.347 190.223 169.407 189.47 169.612 189.47C169.817 189.47 171.219 188.339 172.724 186.969C174.229 185.633 175.494 184.571 175.529 184.64C175.768 185.153 178.128 182.995 179.838 180.7C182.266 177.446 183.531 176.11 184.25 176.11C184.763 176.11 185.652 175.185 185.686 174.637C185.686 174.465 185.378 174.465 185.002 174.568C184.113 174.842 184.147 174.602 185.207 173.164C185.925 172.273 186.267 172.033 186.883 172.204C187.841 172.444 188.559 171.485 188.901 169.567C189.14 168.128 190.132 166.997 190.132 168.094C190.166 169.121 191.261 167.511 192.389 164.737C192.936 163.435 193.723 161.996 194.133 161.585C195.091 160.626 198.032 155.83 197.827 155.59C197.724 155.522 197.246 155.796 196.767 156.275C195.672 157.269 195.57 157.577 198.511 151.616C199.845 148.979 201.247 146.033 201.692 145.073C202.854 142.436 205.693 133.529 206.548 129.864C206.958 128.082 207.403 126.13 207.574 125.581L207.848 124.554L207.882 125.547C207.916 126.369 207.984 126.472 208.429 126.095C209.01 125.616 209.113 124.52 208.6 124.211C208.361 124.074 208.326 123.218 208.463 121.882C208.737 119.45 208.908 118.97 209.318 119.621C209.489 119.929 209.626 119.347 209.626 118.114C209.626 117.017 209.797 115.818 210.002 115.442C210.242 114.962 210.242 114.208 209.968 112.838C209.694 111.571 209.66 110.851 209.9 110.611C210.105 110.406 210.173 109.721 210.071 109.104C209.968 108.453 210.002 107.939 210.173 107.939C210.755 107.939 210.413 103.657 209.66 101.088C208.429 96.9431 208.463 97.0802 208.976 97.5597C209.763 98.3134 209.9 98.0393 209.558 96.3608C209.387 95.4701 209.284 94.2026 209.318 93.5518C209.421 91.5306 208.874 88.0707 208.497 88.3105C208.292 88.4133 208.224 88.0022 208.326 87.1801C208.429 86.4264 208.361 85.3987 208.224 84.8506C208.053 84.234 208.053 83.7544 208.258 83.6174C208.463 83.4804 208.326 82.8638 207.916 82.0759C207.54 81.3222 207.232 80.4658 207.232 80.1575C207.232 79.8149 207.129 79.2668 206.993 78.9243C206.787 78.3762 206.719 78.4104 206.548 79.1641C206.411 79.7807 206.069 78.89 205.248 75.8412C204.086 71.4221 203.949 70.4287 204.53 70.8055C205.009 71.1138 204.291 69.6408 203.47 68.7159C203.128 68.339 202.752 67.4141 202.649 66.6947C202.512 65.9753 202.205 65.1532 201.999 64.9134C201.76 64.6736 200.905 63.7487 200.05 62.858C199.161 61.8988 198.716 61.1795 198.956 61.0767C199.195 61.0082 199.298 60.8026 199.161 60.6313C199.058 60.4601 199.195 60.323 199.434 60.323C199.674 60.2888 199.537 60.0147 199.092 59.6379C198.34 59.0213 197.143 56.6233 197.417 56.3493C197.656 56.1095 199.229 58.3362 200.563 60.7684C201.247 62.0359 201.863 63.0636 201.931 63.0636C202.341 63.0636 199.982 58.6445 197.348 54.5337C193.791 48.9157 191.808 46.2437 188.935 43.1948C187.772 41.9616 185.96 39.872 184.865 38.5702C183.771 37.2342 181.24 34.4937 179.222 32.4383C161.438 14.2139 140.439 3.79998 116.26 1.23075C110.617 0.614131 100.46 0.648388 94.7824 1.265ZM88.9 7.87649C87.19 8.83567 83.0176 9.96613 81.8206 9.76059C80.4868 9.55505 76.588 10.7198 76.588 11.3364C76.588 11.6447 71.629 13.3918 70.7398 13.3918C69.9874 13.3918 63.1474 16.7832 59.146 19.1126C53.161 22.6067 42.7642 30.3144 42.6958 31.3079C42.6958 31.5134 41.5672 32.5411 40.165 33.5688C29.5972 41.2422 18.448 56.1095 12.121 70.9425C9.79538 76.355 6.20438 87.5569 6.64898 88.0022C6.75158 88.105 6.81998 88.0365 6.81998 87.8309C6.81998 87.3171 8.22218 84.234 8.39318 84.371C8.46158 84.4395 8.35898 85.0562 8.18798 85.707C7.43558 88.4475 6.47798 95.2646 6.10178 100.403C5.04158 116.161 8.66678 134.488 16.0198 150.28C17.9008 154.357 22.7572 163.743 23.7148 165.25C24.9802 167.135 23.8858 166.073 21.7312 163.264C17.8666 158.262 16.4644 155.864 14.002 150.178C7.05938 134.009 3.60518 118.011 4.18658 104.343C4.32338 101.088 4.32338 100.711 4.08398 102.458C3.67358 105.336 3.53678 116.572 3.84458 121.642C4.11818 126.78 3.60518 124.383 3.09218 118.251C0.595578 87.8652 11.3344 58.0621 32.5726 36.6176C46.5946 22.4697 64.1734 12.8094 83.599 8.59587C88.3186 7.56818 89.7892 7.36264 88.9 7.87649Z" fill="#2A2A2A"/>
<path d="M0.0141864 112.05C-0.0542136 114.277 0.663986 123.492 1.21119 127.123C3.36579 141.99 8.18799 154.049 17.6956 168.334C20.9446 173.198 22.1416 174.568 19.5424 170.423C13.0102 159.906 6.88839 145.998 3.98139 135.002C2.06619 127.842 1.45059 124.108 0.356186 113.592C0.185186 112.084 0.0483864 111.399 0.0141864 112.05Z" fill="#2A2A2A"/>
<path d="M5.79401 136.92C5.79401 137.605 7.84601 144.765 8.94041 147.677C13.2496 159.393 23.2702 174.157 34.2142 184.845C45.5344 195.91 57.094 203.207 71.458 208.414C79.1188 211.188 86.506 212.73 95.74 213.449C104.324 214.134 105.59 214.134 100.186 213.415C97.279 213.038 93.9616 212.593 92.833 212.422C90.3364 212.079 81.1366 209.304 74.878 207.009C51.0064 198.239 32.9146 184.948 19.8844 166.655C14.7544 159.393 10.7872 151.411 7.64081 142.025C6.64901 139.01 5.82821 136.715 5.79401 136.92Z" fill="#2A2A2A"/>
<path d="M69.9463 179.134L57.4707 171.614C53.2552 162.5 51.1475 152.531 51.1475 141.707C51.1475 130.883 51.1475 120.003 51.1475 109.065L57.4707 70.4424L56.2744 66.6826L60.0342 35.4082H62.4268L67.3828 37.9717C74.1048 50.3903 77.0671 64.5179 76.2695 80.3545L81.2256 81.7217C93.7581 74.9997 105.835 67.708 117.456 59.8467C129.077 51.8714 141.553 45.3773 154.883 40.3643L161.206 50.4473L157.446 60.3594H152.49L149.927 66.6826C134.09 80.0127 117.456 92.0895 100.024 102.913L98.6572 106.673C112.899 113.281 127.71 119.091 143.091 124.104C158.472 129.118 173.283 134.985 187.524 141.707V145.467C181.6 150.366 174.08 152.018 164.966 150.423C149.129 147.119 134.546 141.536 121.216 133.675C107.886 125.7 93.3024 120.459 77.4658 117.952C74.9593 132.08 74.1048 147.062 74.9023 162.898L76.2695 170.418C75.3581 174.52 73.2503 177.425 69.9463 179.134Z" fill="white"/>
</svg>
